<svg id="svg" version="1.1" width="400" height="400" viewBox="0 0 400 400" xmlns="http://www.w3.org/2000/svg" xmlns:xlink="http://www.w3.org/1999/xlink" ><g id="svgg"><path id="path0" d="M51.000 0.276 C 50.120 0.356,49.040 0.583,48.600 0.781 C 47.769 1.154,46.325 1.504,44.100 1.872 C 43.385 1.991,42.800 2.248,42.800 2.444 C 42.800 2.640,42.438 2.800,41.995 2.800 C 41.217 2.800,40.831 2.942,38.905 3.938 C 38.413 4.192,37.648 4.400,37.205 4.400 C 36.762 4.400,36.400 4.580,36.400 4.800 C 36.400 5.020,36.040 5.200,35.600 5.200 C 35.160 5.200,34.800 5.380,34.800 5.600 C 34.800 5.820,34.440 6.000,34.000 6.000 C 33.560 6.000,33.200 6.146,33.200 6.325 C 33.200 6.504,32.570 6.898,31.800 7.200 C 31.030 7.502,30.400 7.896,30.400 8.075 C 30.400 8.254,30.130 8.400,29.800 8.400 C 29.470 8.400,29.200 8.580,29.200 8.800 C 29.200 9.020,28.930 9.200,28.600 9.200 C 28.270 9.200,28.000 9.368,28.000 9.573 C 28.000 9.778,27.656 10.055,27.237 10.188 C 26.817 10.322,25.872 10.961,25.137 11.609 C 24.401 12.257,23.594 12.790,23.343 12.794 C 22.747 12.802,12.802 22.747,12.794 23.343 C 12.790 23.594,12.257 24.401,11.609 25.137 C 10.961 25.872,10.322 26.817,10.188 27.237 C 10.055 27.656,9.778 28.000,9.573 28.000 C 9.368 28.000,9.200 28.270,9.200 28.600 C 9.200 28.930,9.020 29.200,8.800 29.200 C 8.580 29.200,8.400 29.470,8.400 29.800 C 8.400 30.130,8.254 30.400,8.075 30.400 C 7.896 30.400,7.502 31.030,7.200 31.800 C 6.898 32.570,6.504 33.200,6.325 33.200 C 6.146 33.200,6.000 33.560,6.000 34.000 C 6.000 34.440,5.820 34.800,5.600 34.800 C 5.380 34.800,5.200 35.160,5.200 35.600 C 5.200 36.040,5.020 36.400,4.800 36.400 C 4.580 36.400,4.400 36.762,4.400 37.205 C 4.400 37.648,4.220 38.368,4.000 38.805 C 3.780 39.242,3.420 39.958,3.200 40.395 C 2.980 40.832,2.800 41.552,2.800 41.995 C 2.800 42.438,2.640 42.800,2.444 42.800 C 2.248 42.800,1.991 43.385,1.872 44.100 C 1.473 46.513,1.142 47.796,0.670 48.761 C -0.038 50.208,-0.008 350.552,0.700 351.260 C 0.975 351.535,1.200 352.343,1.200 353.056 C 1.200 353.769,1.380 354.464,1.600 354.600 C 1.820 354.736,2.000 355.377,2.000 356.024 C 2.000 356.671,2.180 357.200,2.400 357.200 C 2.620 357.200,2.800 357.740,2.800 358.400 C 2.800 359.060,2.980 359.600,3.200 359.600 C 3.420 359.600,3.604 359.915,3.608 360.300 C 3.613 360.685,4.533 362.800,5.652 365.000 C 6.771 367.200,7.892 369.404,8.143 369.897 C 8.394 370.390,8.735 370.795,8.900 370.797 C 9.065 370.799,9.200 371.070,9.200 371.400 C 9.200 371.730,9.359 372.000,9.554 372.000 C 9.749 372.000,10.191 372.594,10.536 373.321 C 10.881 374.048,11.531 374.976,11.981 375.383 C 12.432 375.791,12.800 376.306,12.800 376.528 C 12.800 377.009,12.802 377.011,18.222 382.500 C 20.557 384.865,22.619 386.800,22.805 386.800 C 22.991 386.800,23.381 387.038,23.672 387.329 C 24.403 388.061,29.158 391.298,30.500 391.978 C 31.105 392.284,31.600 392.685,31.600 392.868 C 31.600 393.050,31.853 393.200,32.162 393.200 C 32.828 393.200,36.141 394.868,36.333 395.300 C 36.407 395.465,36.891 395.600,37.410 395.600 C 37.928 395.600,38.464 395.780,38.600 396.000 C 38.736 396.220,39.197 396.400,39.624 396.400 C 40.051 396.400,40.400 396.580,40.400 396.800 C 40.400 397.020,40.940 397.200,41.600 397.200 C 42.260 397.200,42.800 397.360,42.800 397.556 C 42.800 397.752,43.385 398.014,44.100 398.137 C 47.351 398.699,48.219 398.941,48.485 399.355 C 48.820 399.876,208.800 400.230,208.800 399.710 C 208.800 399.539,183.701 374.300,153.023 343.623 C 122.346 312.947,97.318 287.733,97.404 287.593 C 97.491 287.452,96.519 286.673,95.245 285.861 C 92.611 284.183,89.943 281.737,88.197 279.397 C 87.541 278.519,86.895 277.710,86.761 277.600 C 86.496 277.383,84.359 273.221,83.679 271.600 C 82.063 267.742,82.036 256.952,83.635 253.905 C 83.836 253.523,84.000 252.955,84.000 252.643 C 84.000 252.091,85.114 249.621,86.275 247.600 C 86.591 247.050,86.949 246.285,87.071 245.900 C 87.193 245.515,87.452 245.200,87.647 245.200 C 87.841 245.200,88.000 244.964,88.000 244.675 C 88.000 244.387,88.320 243.802,88.711 243.375 C 89.102 242.949,89.861 241.970,90.398 241.200 C 92.832 237.709,103.131 228.800,104.732 228.800 C 104.953 228.800,105.193 228.664,105.267 228.498 C 105.340 228.332,106.660 227.568,108.200 226.800 C 109.740 226.032,111.060 225.268,111.133 225.102 C 111.207 224.936,111.601 224.800,112.010 224.800 C 112.418 224.800,112.864 224.620,113.000 224.400 C 113.136 224.180,113.597 224.000,114.024 224.000 C 114.451 224.000,114.800 223.820,114.800 223.600 C 114.800 223.380,115.239 223.200,115.776 223.200 C 116.313 223.200,116.864 223.020,117.000 222.800 C 117.136 222.580,117.687 222.400,118.224 222.400 C 118.761 222.400,119.200 222.220,119.200 222.000 C 119.200 221.780,119.729 221.600,120.376 221.600 C 121.023 221.600,121.664 221.420,121.800 221.200 C 121.936 220.980,122.541 220.800,123.144 220.800 C 123.747 220.800,124.411 220.638,124.620 220.441 C 124.829 220.244,125.720 219.979,126.600 219.853 C 127.480 219.726,129.370 219.420,130.800 219.171 C 132.230 218.922,137.585 218.637,142.700 218.538 C 152.194 218.355,152.612 218.278,151.174 216.976 C 149.657 215.604,146.783 210.882,146.031 208.527 C 144.365 203.310,144.595 199.335,147.003 191.728 C 147.277 190.862,147.234 190.855,140.939 190.673 C 134.786 190.495,130.884 190.040,128.000 189.164 C 125.323 188.351,120.190 186.245,118.600 185.308 C 117.720 184.789,116.685 184.262,116.300 184.136 C 115.915 184.010,115.600 183.748,115.600 183.553 C 115.600 183.359,115.407 183.200,115.171 183.200 C 114.936 183.200,114.514 182.975,114.235 182.700 C 113.955 182.425,113.116 181.750,112.370 181.200 C 109.831 179.329,105.664 174.952,103.612 172.000 C 103.077 171.230,102.540 170.510,102.419 170.400 C 101.677 169.723,98.667 163.435,97.919 161.000 C 94.557 150.049,95.051 139.144,99.327 129.900 C 100.015 128.415,100.717 127.200,100.888 127.200 C 101.060 127.200,101.200 127.007,101.200 126.772 C 101.200 126.367,103.465 122.826,103.997 122.400 C 104.134 122.290,104.554 121.750,104.931 121.200 C 106.867 118.370,115.320 110.944,117.600 110.070 C 117.930 109.944,118.549 109.516,118.975 109.120 C 119.402 108.724,119.987 108.400,120.275 108.400 C 120.564 108.400,120.800 108.220,120.800 108.000 C 120.800 107.780,121.160 107.600,121.600 107.600 C 122.040 107.600,122.400 107.420,122.400 107.200 C 122.400 106.980,122.760 106.800,123.200 106.800 C 123.640 106.800,124.000 106.620,124.000 106.400 C 124.000 106.180,124.360 106.000,124.800 106.000 C 125.240 106.000,125.600 105.820,125.600 105.600 C 125.600 105.380,125.872 105.200,126.205 105.200 C 126.538 105.200,127.168 105.020,127.605 104.800 C 128.042 104.580,128.758 104.220,129.195 104.000 C 129.632 103.780,130.341 103.600,130.771 103.600 C 131.201 103.600,131.664 103.420,131.800 103.200 C 131.936 102.980,132.566 102.800,133.200 102.800 C 133.834 102.800,134.452 102.639,134.574 102.442 C 134.695 102.245,135.471 101.981,136.297 101.854 C 137.124 101.727,138.970 101.412,140.400 101.153 C 143.053 100.674,209.183 100.154,210.354 100.604 C 210.798 100.774,210.759 100.986,210.154 101.665 C 209.405 102.508,209.405 102.510,210.301 101.960 C 211.131 101.450,253.200 142.378,253.200 143.695 C 253.200 143.858,244.605 144.041,234.100 144.100 L 215.000 144.208 234.476 144.304 C 247.134 144.366,254.039 144.260,254.200 144.000 C 254.336 143.780,255.337 143.600,256.424 143.600 L 258.400 143.600 258.400 122.000 L 258.400 100.400 266.000 100.400 C 271.825 100.400,273.600 100.517,273.600 100.901 C 273.600 101.177,283.050 110.852,294.600 122.400 C 306.150 133.948,315.600 143.531,315.600 143.695 C 315.600 143.859,306.195 144.043,294.700 144.105 L 273.800 144.217 295.400 144.292 L 317.000 144.368 358.200 185.582 C 380.860 208.250,399.539 226.798,399.709 226.798 C 400.229 226.801,399.875 48.819,399.355 48.485 C 398.941 48.219,398.699 47.351,398.137 44.100 C 398.014 43.385,397.752 42.800,397.556 42.800 C 397.360 42.800,397.200 42.260,397.200 41.600 C 397.200 40.940,397.020 40.400,396.800 40.400 C 396.580 40.400,396.400 40.040,396.400 39.600 C 396.400 39.160,396.220 38.800,396.000 38.800 C 395.780 38.800,395.600 38.275,395.600 37.633 C 395.600 36.992,395.465 36.407,395.300 36.333 C 394.868 36.141,393.200 32.828,393.200 32.162 C 393.200 31.853,393.050 31.600,392.868 31.600 C 392.685 31.600,392.283 31.105,391.974 30.500 C 391.189 28.961,388.959 25.557,388.110 24.600 C 387.720 24.160,387.076 23.297,386.679 22.682 C 386.283 22.068,384.213 19.861,382.079 17.778 C 376.880 12.703,376.988 12.800,376.536 12.800 C 376.318 12.800,375.717 12.350,375.200 11.800 C 374.683 11.250,374.050 10.800,373.792 10.800 C 373.535 10.800,372.998 10.440,372.600 10.000 C 372.202 9.560,371.634 9.200,371.338 9.200 C 371.042 9.200,370.799 9.065,370.797 8.900 C 370.795 8.735,370.390 8.394,369.897 8.143 C 369.404 7.892,367.200 6.771,365.000 5.652 C 362.800 4.533,360.685 3.613,360.300 3.608 C 359.915 3.604,359.600 3.420,359.600 3.200 C 359.600 2.980,359.060 2.800,358.400 2.800 C 357.740 2.800,357.200 2.620,357.200 2.400 C 357.200 2.180,356.671 2.000,356.024 2.000 C 355.377 2.000,354.736 1.820,354.600 1.600 C 354.464 1.380,353.769 1.200,353.056 1.200 C 352.343 1.200,351.535 0.975,351.260 0.700 C 350.795 0.235,56.026 -0.181,51.000 0.276 M140.500 110.276 C 140.885 110.376,141.515 110.376,141.900 110.276 C 142.285 110.175,141.970 110.093,141.200 110.093 C 140.430 110.093,140.115 110.175,140.500 110.276 M118.144 139.600 C 118.144 141.690,118.212 142.545,118.294 141.500 C 118.376 140.455,118.376 138.745,118.294 137.700 C 118.212 136.655,118.144 137.510,118.144 139.600 M197.701 143.400 C 197.705 144.280,197.787 144.593,197.883 144.095 C 197.979 143.598,197.975 142.878,197.875 142.495 C 197.775 142.113,197.696 142.520,197.701 143.400 M214.165 151.800 C 214.166 155.760,214.226 157.326,214.298 155.280 C 214.371 153.234,214.371 149.994,214.298 148.080 C 214.224 146.166,214.165 147.840,214.165 151.800 M197.693 148.800 C 197.693 149.570,197.775 149.885,197.876 149.500 C 197.976 149.115,197.976 148.485,197.876 148.100 C 197.775 147.715,197.693 148.030,197.693 148.800 M151.500 183.882 C 151.995 183.978,152.805 183.978,153.300 183.882 C 153.795 183.787,153.390 183.709,152.400 183.709 C 151.410 183.709,151.005 183.787,151.500 183.882 M193.800 222.400 C 194.883 223.500,195.860 224.400,195.970 224.400 C 196.080 224.400,195.283 223.500,194.200 222.400 C 193.117 221.300,192.140 220.400,192.030 220.400 C 191.920 220.400,192.717 221.300,193.800 222.400 M182.400 240.600 C 183.146 241.370,183.847 242.000,183.957 242.000 C 184.067 242.000,183.546 241.370,182.800 240.600 C 182.054 239.830,181.353 239.200,181.243 239.200 C 181.133 239.200,181.654 239.830,182.400 240.600 M114.200 277.200 C 115.059 278.080,115.852 278.800,115.962 278.800 C 116.072 278.800,115.459 278.080,114.600 277.200 C 113.741 276.320,112.948 275.600,112.838 275.600 C 112.728 275.600,113.341 276.320,114.200 277.200 M194.400 281.800 C 193.428 282.790,192.723 283.600,192.833 283.600 C 192.943 283.600,193.828 282.790,194.800 281.800 C 195.772 280.810,196.477 280.000,196.367 280.000 C 196.257 280.000,195.372 280.810,194.400 281.800 M139.300 299.491 C 140.125 299.578,141.475 299.578,142.300 299.491 C 143.125 299.405,142.450 299.334,140.800 299.334 C 139.150 299.334,138.475 299.405,139.300 299.491 M148.291 299.489 C 149.001 299.577,150.261 299.579,151.091 299.492 C 151.921 299.405,151.340 299.333,149.800 299.331 C 148.260 299.329,147.581 299.400,148.291 299.489 " stroke="none" fill="#db4b3b" fill-rule="evenodd"></path><path id="path1" d="M372.800 10.171 C 372.800 10.265,373.385 10.623,374.100 10.966 L 375.400 11.592 374.456 10.796 C 373.582 10.060,372.800 9.764,372.800 10.171 M389.200 25.866 C 389.200 26.074,389.650 26.855,390.200 27.600 C 390.750 28.345,391.200 28.838,391.200 28.695 C 391.200 28.553,390.750 27.772,390.200 26.962 C 389.650 26.151,389.200 25.659,389.200 25.866 M209.600 102.415 C 209.050 102.853,207.250 104.139,205.600 105.272 C 203.950 106.405,202.510 107.449,202.400 107.593 C 202.290 107.736,201.300 108.460,200.200 109.203 C 199.100 109.946,198.140 110.699,198.067 110.877 C 197.993 111.055,193.763 111.214,188.667 111.232 C 183.570 111.249,179.670 111.366,180.000 111.492 C 180.330 111.617,180.690 111.828,180.800 111.960 C 180.910 112.092,181.540 112.500,182.200 112.866 C 183.907 113.813,187.245 116.739,188.625 118.497 C 189.271 119.320,190.133 120.400,190.540 120.897 C 190.947 121.394,191.575 122.475,191.934 123.300 C 192.294 124.125,192.726 124.800,192.894 124.800 C 193.062 124.800,193.200 125.160,193.200 125.600 C 193.200 126.040,193.380 126.400,193.600 126.400 C 193.820 126.400,194.000 126.672,194.000 127.005 C 194.000 127.338,194.159 127.923,194.353 128.305 C 195.213 129.995,195.562 131.089,196.780 135.900 C 198.097 141.109,198.115 150.755,196.814 154.800 C 196.637 155.350,196.252 156.610,195.957 157.600 C 195.496 159.152,193.925 162.446,191.953 166.000 C 190.155 169.239,184.381 175.673,180.996 178.209 C 164.253 190.750,164.871 199.644,183.458 213.629 C 189.453 218.139,194.204 222.223,195.885 224.310 C 196.718 225.345,197.734 226.554,198.143 226.996 C 204.998 234.415,208.272 251.687,205.120 263.800 C 202.469 273.983,193.936 284.699,184.247 290.011 C 181.979 291.254,177.987 293.233,176.900 293.653 C 176.405 293.844,175.595 294.156,175.100 294.346 C 174.605 294.537,173.750 294.882,173.200 295.113 C 172.650 295.344,171.750 295.650,171.200 295.794 C 170.650 295.937,169.570 296.234,168.800 296.454 C 157.011 299.818,141.934 300.369,126.800 297.986 C 125.370 297.761,123.480 297.474,122.600 297.347 C 121.720 297.221,120.829 296.956,120.620 296.759 C 120.411 296.562,119.657 296.400,118.944 296.400 C 118.231 296.400,117.536 296.220,117.400 296.000 C 117.264 295.780,116.634 295.600,116.000 295.600 C 115.366 295.600,114.736 295.420,114.600 295.200 C 114.464 294.980,113.924 294.800,113.400 294.800 C 112.876 294.800,112.336 294.620,112.200 294.400 C 112.064 294.180,111.601 294.000,111.171 294.000 C 110.741 294.000,110.032 293.820,109.595 293.600 C 109.158 293.380,108.442 293.020,108.005 292.800 C 107.568 292.580,106.938 292.400,106.605 292.400 C 106.272 292.400,106.000 292.220,106.000 292.000 C 106.000 291.780,105.748 291.600,105.441 291.600 C 104.912 291.600,102.519 290.417,99.053 288.442 C 98.202 287.957,97.445 287.622,97.370 287.696 C 97.296 287.771,122.472 313.073,153.317 343.924 L 209.400 400.016 280.567 399.908 C 337.068 399.822,351.768 399.697,351.900 399.300 C 351.996 399.013,352.736 398.800,353.633 398.800 C 354.495 398.800,355.200 398.620,355.200 398.400 C 355.200 398.180,355.740 398.000,356.400 398.000 C 357.060 398.000,357.600 397.820,357.600 397.600 C 357.600 397.380,358.050 397.200,358.600 397.200 C 359.150 397.200,359.600 397.020,359.600 396.800 C 359.600 396.580,360.140 396.400,360.800 396.400 C 361.460 396.400,362.000 396.220,362.000 396.000 C 362.000 395.780,362.360 395.600,362.800 395.600 C 363.240 395.600,363.600 395.420,363.600 395.200 C 363.600 394.980,363.960 394.800,364.400 394.800 C 364.840 394.800,365.200 394.620,365.200 394.400 C 365.200 394.180,365.560 394.000,366.000 394.000 C 366.440 394.000,366.800 393.820,366.800 393.600 C 366.800 393.380,367.160 393.200,367.600 393.200 C 368.040 393.200,368.400 393.020,368.400 392.800 C 368.400 392.580,368.760 392.400,369.200 392.400 C 369.640 392.400,370.000 392.232,370.000 392.027 C 370.000 391.822,370.377 391.534,370.838 391.388 C 372.025 391.011,375.200 388.816,375.200 388.372 C 375.200 388.167,375.472 388.000,375.803 388.000 C 376.591 388.000,388.000 376.591,388.000 375.803 C 388.000 375.472,388.167 375.200,388.372 375.200 C 388.816 375.200,391.011 372.025,391.388 370.838 C 391.534 370.377,391.822 370.000,392.027 370.000 C 392.232 370.000,392.400 369.640,392.400 369.200 C 392.400 368.760,392.580 368.400,392.800 368.400 C 393.020 368.400,393.200 368.040,393.200 367.600 C 393.200 367.160,393.380 366.800,393.600 366.800 C 393.820 366.800,394.000 366.440,394.000 366.000 C 394.000 365.560,394.180 365.200,394.400 365.200 C 394.620 365.200,394.800 364.840,394.800 364.400 C 394.800 363.960,394.980 363.600,395.200 363.600 C 395.420 363.600,395.600 363.240,395.600 362.800 C 395.600 362.360,395.780 362.000,396.000 362.000 C 396.220 362.000,396.400 361.460,396.400 360.800 C 396.400 360.140,396.580 359.600,396.800 359.600 C 397.020 359.600,397.200 359.150,397.200 358.600 C 397.200 358.050,397.380 357.600,397.600 357.600 C 397.820 357.600,398.000 357.060,398.000 356.400 C 398.000 355.740,398.180 355.200,398.400 355.200 C 398.620 355.200,398.800 354.495,398.800 353.633 C 398.800 352.736,399.013 351.996,399.300 351.900 C 399.696 351.768,399.823 338.865,399.912 289.567 L 400.023 227.400 358.912 186.296 L 317.800 145.192 317.600 152.296 L 317.400 159.400 295.500 159.503 L 273.600 159.607 273.600 181.803 L 273.600 204.000 266.000 204.000 L 258.400 204.000 258.400 181.800 L 258.400 159.600 236.680 159.600 C 220.320 159.600,214.842 159.482,214.480 159.120 C 213.563 158.203,213.829 144.920,214.774 144.414 C 215.276 144.145,222.161 144.000,234.374 144.000 C 244.728 144.000,253.200 143.864,253.200 143.699 C 253.200 143.236,211.452 101.599,210.999 101.609 C 210.779 101.614,210.150 101.977,209.600 102.415 M273.600 122.701 L 273.600 144.000 294.600 144.000 C 306.150 144.000,315.600 143.864,315.600 143.699 C 315.600 143.533,306.150 133.948,294.600 122.400 L 273.600 101.403 273.600 122.701 M135.800 110.800 C 135.664 111.020,135.222 111.200,134.817 111.200 C 133.888 111.200,130.101 113.177,128.609 114.442 C 126.152 116.522,123.600 119.340,123.600 119.971 C 123.600 120.170,123.447 120.393,123.261 120.467 C 122.685 120.693,120.503 125.640,119.585 128.800 C 117.350 136.489,118.436 150.517,121.875 158.400 C 130.660 178.534,147.244 188.303,161.268 181.604 C 164.923 179.858,170.800 173.954,170.800 172.028 C 170.800 171.793,170.980 171.600,171.200 171.600 C 171.420 171.600,171.600 171.411,171.600 171.181 C 171.600 170.950,171.960 170.016,172.400 169.106 C 172.840 168.195,173.200 167.134,173.200 166.748 C 173.200 166.363,173.380 165.936,173.600 165.800 C 173.820 165.664,174.000 164.944,174.000 164.200 C 174.000 163.456,174.154 162.752,174.342 162.636 C 175.202 162.104,175.516 153.742,174.868 148.600 C 174.117 142.628,173.931 141.605,173.558 141.374 C 173.361 141.252,173.200 140.634,173.200 140.000 C 173.200 139.366,173.020 138.736,172.800 138.600 C 172.580 138.464,172.400 138.001,172.400 137.571 C 172.400 137.141,172.242 136.477,172.048 136.095 C 171.855 135.713,170.763 133.525,169.621 131.234 C 165.302 122.565,157.967 115.074,151.200 112.421 C 150.430 112.119,149.629 111.721,149.420 111.536 C 149.211 111.351,148.547 111.200,147.944 111.200 C 147.341 111.200,146.736 111.020,146.600 110.800 C 146.456 110.567,144.204 110.400,141.200 110.400 C 138.196 110.400,135.944 110.567,135.800 110.800 M140.800 225.600 C 140.470 225.813,139.446 225.991,138.524 225.994 C 137.602 225.997,136.736 226.180,136.600 226.400 C 136.464 226.620,135.744 226.800,135.000 226.800 C 134.256 226.800,133.536 226.980,133.400 227.200 C 133.264 227.420,132.801 227.600,132.371 227.600 C 131.941 227.600,131.277 227.759,130.895 227.953 C 130.513 228.148,129.660 228.529,129.000 228.800 C 128.340 229.071,127.487 229.452,127.105 229.647 C 126.723 229.841,126.138 230.000,125.805 230.000 C 125.472 230.000,125.200 230.141,125.200 230.312 C 125.200 230.484,124.702 230.813,124.093 231.042 C 120.456 232.415,109.600 241.643,109.600 243.362 C 109.600 243.676,109.464 243.993,109.298 244.067 C 108.877 244.253,106.528 249.146,106.162 250.600 C 105.438 253.479,105.958 264.480,106.844 265.027 C 107.040 265.148,107.200 265.509,107.200 265.828 C 107.200 269.088,114.596 278.229,120.000 281.648 C 122.688 283.349,127.332 285.600,128.151 285.600 C 128.482 285.600,128.864 285.780,129.000 286.000 C 129.136 286.220,129.676 286.400,130.200 286.400 C 130.724 286.400,131.252 286.560,131.373 286.756 C 131.494 286.951,132.269 287.226,133.096 287.366 C 133.923 287.507,135.770 287.828,137.200 288.080 C 143.891 289.261,158.911 288.400,165.600 286.453 C 166.370 286.229,167.656 285.878,168.458 285.674 C 177.025 283.494,188.000 273.350,188.000 267.612 C 188.000 267.191,188.156 266.751,188.347 266.633 C 189.248 266.076,189.749 254.444,189.009 251.261 C 187.919 246.572,183.153 240.496,177.000 235.952 C 170.363 231.050,163.605 226.800,162.449 226.800 C 161.788 226.800,161.136 226.620,161.000 226.400 C 160.864 226.180,159.964 226.000,159.000 226.000 C 158.036 226.000,157.136 225.820,157.000 225.600 C 156.677 225.077,141.610 225.077,140.800 225.600 M10.000 373.156 C 10.000 373.351,10.358 373.936,10.796 374.456 L 11.592 375.400 10.966 374.100 C 10.346 372.810,10.000 372.472,10.000 373.156 M26.962 390.200 C 27.772 390.750,28.553 391.200,28.695 391.200 C 28.838 391.200,28.345 390.750,27.600 390.200 C 26.855 389.650,26.074 389.200,25.866 389.200 C 25.659 389.200,26.151 389.650,26.962 390.200 " stroke="none" fill="#8c241c" fill-rule="evenodd"></path><path id="path2" d="M146.000 101.467 C 142.912 101.634,138.196 102.367,135.600 103.083 C 134.390 103.417,132.903 103.780,132.295 103.891 C 131.687 104.002,131.092 104.251,130.971 104.446 C 130.851 104.641,130.491 104.800,130.172 104.800 C 129.116 104.800,123.361 107.505,119.534 109.800 C 114.222 112.986,107.536 118.890,104.813 122.800 C 104.277 123.570,103.738 124.290,103.616 124.400 C 103.493 124.510,102.739 125.680,101.939 127.000 C 89.294 147.875,99.408 176.579,122.835 186.302 C 129.328 188.997,140.108 190.824,145.871 190.207 C 148.926 189.880,148.842 189.545,147.004 194.722 C 144.203 202.608,146.376 211.380,152.564 217.170 C 154.134 218.639,153.891 218.800,150.100 218.801 C 136.313 218.803,123.825 220.737,116.000 224.080 C 115.450 224.315,114.640 224.637,114.200 224.797 C 86.705 234.761,74.515 264.316,90.999 281.049 C 95.974 286.097,100.564 288.982,109.200 292.487 C 109.750 292.711,110.513 293.052,110.895 293.247 C 111.277 293.441,111.941 293.600,112.371 293.600 C 112.801 293.600,113.251 293.759,113.371 293.954 C 113.492 294.149,114.087 294.404,114.695 294.521 C 115.303 294.638,116.520 294.943,117.400 295.197 C 130.827 299.084,153.309 299.630,166.100 296.381 C 170.962 295.146,172.006 294.812,173.695 293.953 C 174.077 293.759,174.567 293.600,174.785 293.600 C 175.002 293.600,176.359 293.060,177.800 292.400 C 179.241 291.740,180.596 291.200,180.810 291.200 C 181.025 291.200,181.203 291.065,181.206 290.900 C 181.210 290.735,182.104 290.163,183.193 289.628 C 196.681 283.008,205.414 268.711,205.323 253.400 C 205.223 236.527,200.229 227.265,185.083 215.861 C 164.847 200.625,162.931 191.466,177.581 179.994 C 182.865 175.856,186.034 172.792,188.737 169.205 C 191.125 166.036,192.269 164.255,192.658 163.100 C 192.787 162.715,193.052 162.400,193.247 162.400 C 193.441 162.400,193.600 162.128,193.600 161.795 C 193.600 161.462,193.780 160.832,194.000 160.395 C 194.220 159.958,194.580 159.242,194.800 158.805 C 195.020 158.368,195.200 157.736,195.200 157.400 C 195.200 157.064,195.364 156.477,195.565 156.095 C 197.103 153.165,197.098 135.849,195.559 134.220 C 195.362 134.011,195.200 133.424,195.200 132.915 C 195.200 132.406,195.041 131.677,194.847 131.295 C 194.652 130.913,194.316 130.150,194.100 129.600 C 193.884 129.050,193.519 128.150,193.290 127.600 C 193.060 127.050,192.770 126.330,192.645 126.000 C 190.837 121.225,184.402 114.429,179.691 112.320 C 176.812 111.031,177.990 110.800,187.450 110.800 C 196.262 110.800,197.340 110.669,198.647 109.437 C 198.902 109.197,201.377 107.380,204.148 105.400 C 206.919 103.420,209.189 101.665,209.193 101.500 C 209.199 101.225,151.034 101.194,146.000 101.467 M258.703 122.891 L 258.600 144.600 236.900 144.703 L 215.200 144.807 215.200 151.800 L 215.200 158.793 236.900 158.897 L 258.600 159.000 258.703 181.109 L 258.807 203.219 265.703 203.109 L 272.600 203.000 272.704 181.437 C 272.776 166.323,272.940 159.713,273.252 159.337 C 273.615 158.900,277.709 158.800,295.249 158.800 L 316.800 158.800 316.800 151.800 L 316.800 144.800 295.000 144.800 C 283.010 144.800,273.159 144.755,273.109 144.700 C 273.058 144.645,272.923 134.880,272.809 123.000 L 272.600 101.400 265.703 101.291 L 258.807 101.181 258.703 122.891 M145.200 109.757 C 148.473 110.458,151.264 111.421,153.141 112.495 C 153.943 112.955,155.066 113.570,155.636 113.863 C 161.448 116.848,172.800 131.802,172.800 136.474 C 172.800 136.847,172.980 137.264,173.200 137.400 C 173.420 137.536,173.600 138.076,173.600 138.600 C 173.600 139.124,173.760 139.652,173.956 139.773 C 174.151 139.894,174.415 140.579,174.541 141.296 C 174.667 142.013,174.989 143.770,175.258 145.200 C 175.801 148.095,175.939 158.914,175.464 161.400 C 174.773 165.019,174.092 167.099,172.254 171.200 C 166.922 183.102,153.099 187.821,141.197 181.801 C 114.839 168.469,108.666 122.375,131.800 111.640 C 132.900 111.130,134.113 110.552,134.495 110.356 C 134.877 110.160,135.687 109.997,136.295 109.994 C 136.903 109.991,137.670 109.813,138.000 109.600 C 138.866 109.040,142.193 109.113,145.200 109.757 M156.400 224.812 C 161.855 225.585,162.411 225.694,162.626 226.042 C 162.748 226.239,163.209 226.400,163.651 226.400 C 165.537 226.400,180.765 237.503,184.395 241.524 C 189.572 247.261,191.889 257.758,189.632 265.256 C 187.093 273.692,183.997 278.090,177.760 282.123 C 163.828 291.130,137.975 292.101,122.903 284.183 C 117.240 281.208,109.242 273.938,109.207 271.733 C 109.203 271.477,109.058 271.207,108.885 271.133 C 107.768 270.660,105.533 264.340,104.780 259.527 C 104.204 255.848,105.138 249.424,106.482 247.820 C 106.657 247.611,106.800 247.131,106.800 246.753 C 106.800 246.376,106.935 246.007,107.100 245.933 C 107.265 245.860,107.835 245.002,108.367 244.026 C 111.517 238.249,119.129 232.082,127.400 228.605 C 128.280 228.235,129.313 227.768,129.695 227.566 C 130.077 227.365,130.741 227.200,131.171 227.200 C 131.601 227.200,132.064 227.020,132.200 226.800 C 132.336 226.580,132.966 226.400,133.600 226.400 C 134.234 226.400,134.852 226.239,134.974 226.042 C 135.212 225.658,136.118 225.500,142.000 224.818 C 144.090 224.575,145.980 224.294,146.200 224.192 C 146.718 223.953,153.053 224.339,156.400 224.812 " stroke="none" fill="#fbfaf9" fill-rule="evenodd"></path><path id="path3" d="M273.386 123.000 C 273.387 134.880,273.438 139.682,273.500 133.672 C 273.562 127.661,273.562 117.941,273.500 112.072 C 273.437 106.202,273.386 111.120,273.386 123.000 M183.500 111.099 C 185.975 111.169,190.025 111.169,192.500 111.099 C 194.975 111.028,192.950 110.971,188.000 110.971 C 183.050 110.971,181.025 111.028,183.500 111.099 M117.720 139.600 C 117.720 140.810,117.795 141.305,117.887 140.700 C 117.978 140.095,117.978 139.105,117.887 138.500 C 117.795 137.895,117.720 138.390,117.720 139.600 M197.340 146.000 C 197.340 147.870,197.409 148.635,197.493 147.700 C 197.577 146.765,197.577 145.235,197.493 144.300 C 197.409 143.365,197.340 144.130,197.340 146.000 M258.587 181.400 C 258.587 193.500,258.637 198.508,258.700 192.528 C 258.762 186.549,258.762 176.649,258.700 170.528 C 258.638 164.408,258.587 169.300,258.587 181.400 M273.387 181.200 C 273.387 193.190,273.438 198.095,273.500 192.100 C 273.562 186.105,273.562 176.295,273.500 170.300 C 273.438 164.305,273.387 169.210,273.387 181.200 M151.100 184.289 C 151.815 184.378,152.985 184.378,153.700 184.289 C 154.415 184.201,153.830 184.128,152.400 184.128 C 150.970 184.128,150.385 184.201,151.100 184.289 M139.105 190.683 C 139.602 190.779,140.322 190.775,140.705 190.675 C 141.087 190.575,140.680 190.496,139.800 190.501 C 138.920 190.505,138.607 190.587,139.105 190.683 M145.700 190.676 C 146.085 190.776,146.715 190.776,147.100 190.676 C 147.485 190.575,147.170 190.493,146.400 190.493 C 145.630 190.493,145.315 190.575,145.700 190.676 M177.600 209.325 C 177.600 209.394,178.185 209.979,178.900 210.625 L 180.200 211.800 179.025 210.500 C 177.930 209.288,177.600 209.016,177.600 209.325 M147.700 224.691 C 148.525 224.778,149.875 224.778,150.700 224.691 C 151.525 224.605,150.850 224.534,149.200 224.534 C 147.550 224.534,146.875 224.605,147.700 224.691 M205.709 251.600 C 205.709 252.590,205.787 252.995,205.882 252.500 C 205.978 252.005,205.978 251.195,205.882 250.700 C 205.787 250.205,205.709 250.610,205.709 251.600 M104.924 256.600 C 104.926 257.920,105.001 258.412,105.090 257.693 C 105.179 256.974,105.177 255.894,105.086 255.293 C 104.995 254.692,104.922 255.280,104.924 256.600 M205.693 256.800 C 205.693 257.570,205.775 257.885,205.876 257.500 C 205.976 257.115,205.976 256.485,205.876 256.100 C 205.775 255.715,205.693 256.030,205.693 256.800 M181.978 278.300 L 180.600 279.800 182.100 278.422 C 183.496 277.138,183.784 276.800,183.478 276.800 C 183.412 276.800,182.737 277.475,181.978 278.300 M90.800 281.800 C 91.546 282.570,92.247 283.200,92.357 283.200 C 92.467 283.200,91.946 282.570,91.200 281.800 C 90.454 281.030,89.753 280.400,89.643 280.400 C 89.533 280.400,90.054 281.030,90.800 281.800 M193.978 281.900 L 192.600 283.400 194.100 282.022 C 195.496 280.738,195.784 280.400,195.478 280.400 C 195.412 280.400,194.737 281.075,193.978 281.900 M152.500 289.076 C 152.885 289.176,153.515 289.176,153.900 289.076 C 154.285 288.975,153.970 288.893,153.200 288.893 C 152.430 288.893,152.115 288.975,152.500 289.076 M139.900 299.082 C 140.395 299.178,141.205 299.178,141.700 299.082 C 142.195 298.987,141.790 298.909,140.800 298.909 C 139.810 298.909,139.405 298.987,139.900 299.082 M148.700 299.082 C 149.195 299.178,150.005 299.178,150.500 299.082 C 150.995 298.987,150.590 298.909,149.600 298.909 C 148.610 298.909,148.205 298.987,148.700 299.082 " stroke="none" fill="#cf8e87" fill-rule="evenodd"></path><path id="path4" d="M162.330 101.100 C 171.201 101.160,185.601 101.160,194.330 101.100 C 203.058 101.040,195.800 100.991,178.200 100.991 C 160.600 100.991,153.458 101.040,162.330 101.100 M262.080 101.098 C 263.994 101.171,267.234 101.171,269.280 101.098 C 271.326 101.026,269.760 100.966,265.800 100.965 C 261.840 100.965,260.166 101.024,262.080 101.098 M258.586 123.000 C 258.587 134.880,258.638 139.682,258.700 133.672 C 258.762 127.661,258.762 117.941,258.700 112.072 C 258.637 106.202,258.586 111.120,258.586 123.000 M110.575 116.100 L 109.400 117.400 110.700 116.225 C 111.912 115.130,112.184 114.800,111.875 114.800 C 111.806 114.800,111.221 115.385,110.575 116.100 M106.778 119.900 L 105.400 121.400 106.900 120.022 C 107.725 119.263,108.400 118.588,108.400 118.522 C 108.400 118.216,108.062 118.504,106.778 119.900 M96.109 143.600 C 96.109 144.590,96.187 144.995,96.282 144.500 C 96.378 144.005,96.378 143.195,96.282 142.700 C 96.187 142.205,96.109 142.610,96.109 143.600 M96.114 149.000 C 96.117 150.100,96.195 150.503,96.287 149.895 C 96.379 149.286,96.377 148.386,96.282 147.895 C 96.187 147.403,96.111 147.900,96.114 149.000 M108.600 177.200 C 109.906 178.520,111.065 179.600,111.175 179.600 C 111.285 179.600,110.306 178.520,109.000 177.200 C 107.694 175.880,106.535 174.800,106.425 174.800 C 106.315 174.800,107.294 175.880,108.600 177.200 M142.100 190.687 C 142.705 190.778,143.695 190.778,144.300 190.687 C 144.905 190.595,144.410 190.520,143.200 190.520 C 141.990 190.520,141.495 190.595,142.100 190.687 M145.324 201.800 C 145.326 203.120,145.401 203.612,145.490 202.893 C 145.579 202.174,145.577 201.094,145.486 200.493 C 145.395 199.892,145.322 200.480,145.324 201.800 M136.900 219.076 C 137.285 219.176,137.915 219.176,138.300 219.076 C 138.685 218.975,138.370 218.893,137.600 218.893 C 136.830 218.893,136.515 218.975,136.900 219.076 M94.585 237.300 L 92.600 239.400 94.700 237.415 C 96.651 235.571,96.983 235.200,96.685 235.200 C 96.622 235.200,95.677 236.145,94.585 237.300 " stroke="none" fill="#e1a49c" fill-rule="evenodd"></path><path id="path5" d="M145.500 101.482 C 145.995 101.578,146.805 101.578,147.300 101.482 C 147.795 101.387,147.390 101.309,146.400 101.309 C 145.410 101.309,145.005 101.387,145.500 101.482 M208.400 102.282 L 207.400 103.316 208.700 102.431 C 209.976 101.562,210.296 101.176,209.700 101.224 C 209.535 101.237,208.950 101.714,208.400 102.282 M272.701 115.100 C 272.757 122.745,272.851 132.420,272.910 136.600 C 272.970 140.780,273.059 134.525,273.109 122.700 C 273.159 110.875,273.065 101.200,272.900 101.200 C 272.735 101.200,272.645 107.455,272.701 115.100 M204.200 105.435 L 203.000 106.466 204.300 105.606 C 205.015 105.133,205.600 104.668,205.600 104.573 C 205.600 104.273,205.431 104.378,204.200 105.435 M138.140 109.506 C 137.887 109.668,139.417 109.809,141.540 109.820 C 143.663 109.831,144.950 109.714,144.400 109.560 C 143.042 109.180,138.709 109.143,138.140 109.506 M146.033 110.144 C 146.125 110.223,146.740 110.408,147.400 110.556 C 148.276 110.752,148.438 110.715,148.000 110.418 C 147.460 110.053,145.632 109.798,146.033 110.144 M178.207 111.188 C 178.076 111.401,178.603 111.841,179.379 112.166 C 181.680 113.127,184.432 115.176,187.179 117.974 C 189.537 120.374,189.612 120.421,188.055 118.516 C 186.161 116.198,182.219 113.059,179.861 111.990 C 178.918 111.564,178.530 111.210,178.861 111.078 C 179.207 110.940,179.230 110.852,178.924 110.832 C 178.662 110.814,178.339 110.975,178.207 111.188 M128.800 113.248 C 126.670 114.999,125.764 115.851,124.809 117.004 C 124.263 117.662,124.803 117.284,126.009 116.165 C 127.214 115.045,128.719 113.740,129.354 113.265 C 129.989 112.789,130.349 112.406,130.154 112.413 C 129.959 112.421,129.350 112.796,128.800 113.248 M155.633 114.114 C 155.725 114.177,156.700 114.911,157.800 115.747 L 159.800 117.265 158.000 115.634 C 157.010 114.736,156.035 114.002,155.833 114.001 C 155.632 114.000,155.542 114.051,155.633 114.114 M162.578 119.969 C 164.041 121.602,165.976 124.080,166.879 125.476 C 167.782 126.871,168.593 127.940,168.682 127.851 C 169.019 127.515,165.292 122.554,162.659 119.833 L 159.917 117.000 162.578 119.969 M121.524 121.700 C 120.791 122.859,119.195 126.772,119.217 127.353 C 119.226 127.599,119.674 126.720,120.211 125.400 C 120.749 124.080,121.471 122.505,121.817 121.900 C 122.570 120.582,122.332 120.420,121.524 121.700 M118.250 130.850 C 117.917 132.517,118.240 132.840,118.600 131.200 C 118.752 130.509,118.793 129.859,118.691 129.758 C 118.589 129.656,118.391 130.147,118.250 130.850 M117.420 137.220 C 117.263 139.226,117.219 140.953,117.323 141.056 C 117.427 141.160,117.641 139.605,117.800 137.600 C 117.959 135.595,118.002 133.869,117.897 133.764 C 117.792 133.658,117.577 135.214,117.420 137.220 M196.068 136.600 C 196.062 137.040,196.211 137.760,196.400 138.200 C 196.838 139.219,196.838 138.168,196.400 136.800 C 196.143 135.996,196.077 135.957,196.068 136.600 M196.954 146.000 C 196.954 148.750,197.018 149.875,197.096 148.500 C 197.174 147.125,197.174 144.875,197.096 143.500 C 197.018 142.125,196.954 143.250,196.954 146.000 M117.720 143.600 C 117.720 144.810,117.795 145.305,117.887 144.700 C 117.978 144.095,117.978 143.105,117.887 142.500 C 117.795 141.895,117.720 142.390,117.720 143.600 M174.644 143.400 C 174.973 144.871,175.202 145.190,175.194 144.167 C 175.191 143.745,175.005 143.130,174.782 142.800 C 174.485 142.362,174.448 142.524,174.644 143.400 M214.977 144.915 C 214.869 145.198,214.829 148.483,214.890 152.215 L 215.000 159.000 236.862 159.200 C 248.886 159.310,258.640 159.265,258.538 159.100 C 258.436 158.935,248.643 158.800,236.776 158.800 L 215.200 158.800 215.200 151.803 L 215.200 144.807 236.900 144.700 L 258.600 144.593 236.887 144.496 C 219.486 144.419,215.136 144.502,214.977 144.915 M294.900 144.698 L 316.800 144.807 316.800 151.803 L 316.800 158.800 295.249 158.800 C 277.709 158.800,273.615 158.900,273.252 159.337 C 272.940 159.713,272.776 166.323,272.704 181.437 L 272.600 203.000 265.600 203.219 L 258.600 203.438 265.800 203.419 L 273.000 203.400 273.200 181.400 L 273.400 159.400 295.200 159.200 L 317.000 159.000 317.000 151.800 L 317.000 144.600 295.000 144.595 L 273.000 144.590 294.900 144.698 M118.080 147.400 C 118.080 147.840,118.224 148.650,118.400 149.200 C 118.654 149.992,118.720 150.033,118.720 149.400 C 118.720 148.960,118.576 148.150,118.400 147.600 C 118.146 146.808,118.080 146.767,118.080 147.400 M175.400 153.800 C 175.400 157.634,175.522 160.462,175.672 160.085 C 175.821 159.708,175.944 156.880,175.944 153.800 C 175.944 150.720,175.821 147.892,175.672 147.515 C 175.522 147.138,175.400 149.966,175.400 153.800 M119.044 152.200 C 119.373 153.671,119.602 153.990,119.594 152.967 C 119.591 152.545,119.405 151.930,119.182 151.600 C 118.885 151.162,118.848 151.324,119.044 152.200 M196.229 153.429 C 196.081 154.015,196.038 154.572,196.132 154.666 C 196.227 154.760,196.424 154.358,196.571 153.771 C 196.719 153.185,196.762 152.628,196.668 152.534 C 196.573 152.440,196.376 152.842,196.229 153.429 M120.598 157.165 C 121.075 158.713,121.994 160.800,122.200 160.800 C 122.414 160.800,120.849 156.707,120.517 156.400 C 120.398 156.290,120.434 156.634,120.598 157.165 M174.846 162.867 C 174.821 163.234,174.696 163.864,174.570 164.267 C 174.352 164.962,174.363 164.963,174.797 164.287 C 175.048 163.896,175.173 163.266,175.073 162.887 C 174.911 162.268,174.888 162.266,174.846 162.867 M191.814 164.635 C 191.441 165.204,191.205 165.738,191.289 165.822 C 191.373 165.907,191.758 165.441,192.144 164.788 C 193.006 163.328,192.748 163.209,191.814 164.635 M124.015 164.600 C 124.017 164.820,124.386 165.450,124.836 166.000 C 125.379 166.664,125.515 166.731,125.240 166.200 C 124.566 164.895,124.012 164.172,124.015 164.600 M189.138 168.700 C 188.211 169.965,186.360 172.186,185.026 173.635 C 183.206 175.611,183.350 175.502,185.600 173.201 C 188.360 170.378,191.541 166.400,191.037 166.400 C 190.921 166.400,190.066 167.435,189.138 168.700 M128.800 171.725 C 128.800 171.794,129.385 172.379,130.100 173.025 L 131.400 174.200 130.225 172.900 C 129.130 171.688,128.800 171.416,128.800 171.725 M132.400 175.361 C 132.400 175.659,134.890 177.911,136.161 178.762 C 137.150 179.424,136.851 179.110,134.300 176.811 C 133.255 175.869,132.400 175.217,132.400 175.361 M166.472 178.442 C 164.862 179.991,163.872 181.068,164.272 180.836 C 165.174 180.312,166.146 179.426,168.181 177.273 C 170.604 174.710,169.734 175.304,166.472 178.442 M180.678 177.413 C 180.060 177.956,179.714 178.400,179.908 178.400 C 180.102 178.400,180.683 177.950,181.200 177.400 C 182.395 176.128,182.131 176.134,180.678 177.413 M176.654 180.655 C 176.023 181.197,175.573 181.706,175.654 181.786 C 175.734 181.866,176.316 181.488,176.946 180.945 C 177.577 180.403,178.027 179.894,177.946 179.814 C 177.866 179.734,177.284 180.112,176.654 180.655 M142.800 182.600 C 143.350 182.914,144.070 183.171,144.400 183.170 C 144.730 183.169,144.394 182.906,143.654 182.584 C 141.951 181.845,141.494 181.853,142.800 182.600 M172.309 184.725 C 171.319 185.783,170.299 187.088,170.043 187.625 L 169.577 188.600 170.287 187.600 C 170.678 187.050,171.788 185.745,172.754 184.700 C 173.719 183.655,174.419 182.800,174.309 182.800 C 174.199 182.800,173.299 183.666,172.309 184.725 M147.200 184.000 C 147.750 184.176,148.650 184.317,149.200 184.313 C 150.098 184.306,150.078 184.274,149.000 184.000 C 147.308 183.569,145.856 183.569,147.200 184.000 M155.600 184.000 C 154.808 184.254,154.767 184.320,155.400 184.320 C 155.840 184.320,156.650 184.176,157.200 184.000 C 157.992 183.746,158.033 183.680,157.400 183.680 C 156.960 183.680,156.150 183.824,155.600 184.000 M138.500 190.276 C 138.885 190.376,139.515 190.376,139.900 190.276 C 140.285 190.175,139.970 190.093,139.200 190.093 C 138.430 190.093,138.115 190.175,138.500 190.276 M146.000 190.155 C 146.000 190.240,146.540 190.388,147.200 190.485 C 147.860 190.582,148.400 190.513,148.400 190.331 C 148.400 190.149,147.860 190.000,147.200 190.000 C 146.540 190.000,146.000 190.070,146.000 190.155 M168.250 192.050 C 167.911 193.747,167.945 197.295,168.306 197.858 C 168.468 198.110,168.602 196.625,168.605 194.558 C 168.611 190.363,168.602 190.292,168.250 192.050 M169.467 200.406 C 169.859 201.070,170.598 202.105,171.110 202.706 C 171.621 203.308,171.375 202.765,170.563 201.500 C 169.024 199.103,168.228 198.307,169.467 200.406 M172.400 204.243 C 172.400 204.451,173.795 205.966,175.500 207.610 L 178.600 210.600 175.600 207.411 C 173.950 205.658,172.555 204.143,172.500 204.045 C 172.445 203.947,172.400 204.036,172.400 204.243 M180.869 212.676 C 183.113 214.489,183.517 214.675,181.818 213.112 C 180.928 212.294,180.051 211.619,179.869 211.612 C 179.687 211.605,180.137 212.084,180.869 212.676 M184.000 214.946 C 184.000 215.056,184.540 215.530,185.200 216.000 C 185.860 216.470,186.400 216.764,186.400 216.654 C 186.400 216.544,185.860 216.070,185.200 215.600 C 184.540 215.130,184.000 214.836,184.000 214.946 M152.434 217.447 C 152.965 218.133,153.480 218.623,153.579 218.535 C 153.677 218.447,153.243 217.886,152.613 217.288 L 151.469 216.200 152.434 217.447 M186.800 216.933 C 186.800 217.043,187.520 217.703,188.400 218.400 C 189.280 219.097,190.000 219.577,190.000 219.467 C 190.000 219.357,189.280 218.697,188.400 218.000 C 187.520 217.303,186.800 216.823,186.800 216.933 M139.891 219.089 C 140.601 219.177,141.861 219.179,142.691 219.092 C 143.521 219.005,142.940 218.933,141.400 218.931 C 139.860 218.929,139.181 219.000,139.891 219.089 M193.400 222.800 C 194.706 224.120,195.865 225.200,195.975 225.200 C 196.085 225.200,195.106 224.120,193.800 222.800 C 192.494 221.480,191.335 220.400,191.225 220.400 C 191.115 220.400,192.094 221.480,193.400 222.800 M145.000 224.357 C 144.120 224.491,145.901 224.600,148.957 224.600 C 152.248 224.600,153.879 224.487,152.957 224.323 C 151.123 223.997,147.260 224.013,145.000 224.357 M138.600 225.210 C 138.066 225.447,138.398 225.486,139.600 225.327 C 140.590 225.196,141.475 225.024,141.567 224.944 C 141.914 224.643,139.364 224.872,138.600 225.210 M156.433 224.943 C 156.525 225.022,157.320 225.197,158.200 225.332 C 159.290 225.499,159.609 225.455,159.200 225.195 C 158.653 224.846,156.045 224.609,156.433 224.943 M134.990 226.016 C 134.821 226.289,135.123 226.338,135.866 226.160 C 137.399 225.792,137.544 225.600,136.290 225.600 C 135.717 225.600,135.132 225.787,134.990 226.016 M161.400 226.000 C 162.501 226.473,162.892 226.473,162.600 226.000 C 162.464 225.780,161.958 225.613,161.476 225.628 C 160.631 225.655,160.629 225.669,161.400 226.000 M132.200 226.800 C 131.908 227.273,132.299 227.273,133.400 226.800 C 134.171 226.469,134.169 226.455,133.324 226.428 C 132.842 226.413,132.336 226.580,132.200 226.800 M197.775 227.732 C 198.391 228.539,198.976 229.200,199.075 229.200 C 199.353 229.200,197.621 226.860,197.109 226.544 C 196.859 226.389,197.159 226.924,197.775 227.732 M199.800 230.800 C 200.141 231.460,200.511 232.000,200.621 232.000 C 200.731 232.000,200.541 231.460,200.200 230.800 C 199.859 230.140,199.489 229.600,199.379 229.600 C 199.269 229.600,199.459 230.140,199.800 230.800 M171.772 231.554 C 171.901 231.763,173.105 232.684,174.447 233.600 C 175.790 234.517,176.787 235.102,176.663 234.902 C 176.539 234.701,175.335 233.780,173.987 232.855 C 172.639 231.930,171.642 231.345,171.772 231.554 M202.313 235.819 C 202.684 236.820,203.039 237.482,203.103 237.291 C 203.231 236.906,202.093 234.000,201.814 234.000 C 201.717 234.000,201.942 234.819,202.313 235.819 M114.264 236.830 C 112.805 238.167,111.230 239.832,110.763 240.530 C 110.264 241.278,110.645 240.990,111.688 239.831 C 112.664 238.748,114.348 237.087,115.431 236.139 C 116.514 235.192,117.291 234.413,117.158 234.408 C 117.025 234.404,115.722 235.494,114.264 236.830 M178.800 236.670 C 179.789 237.512,181.679 239.185,183.000 240.389 C 185.316 242.501,185.337 242.511,183.600 240.670 C 182.610 239.621,180.720 237.948,179.400 236.952 C 177.570 235.570,177.427 235.504,178.800 236.670 M204.273 242.000 C 204.404 242.990,204.576 243.875,204.656 243.967 C 204.957 244.314,204.728 241.764,204.390 241.000 C 204.153 240.466,204.114 240.798,204.273 242.000 M108.873 243.000 C 108.622 243.550,108.483 244.000,108.563 244.000 C 108.643 244.000,109.003 243.550,109.363 243.000 C 109.724 242.450,109.863 242.000,109.673 242.000 C 109.484 242.000,109.123 242.450,108.873 243.000 M186.253 244.408 C 186.838 245.293,187.406 245.928,187.514 245.819 C 187.714 245.619,185.715 242.800,185.374 242.800 C 185.272 242.800,185.668 243.524,186.253 244.408 M205.334 249.200 C 205.334 250.850,205.405 251.525,205.491 250.700 C 205.578 249.875,205.578 248.525,205.491 247.700 C 205.405 246.875,205.334 247.550,205.334 249.200 M105.449 250.215 C 105.312 250.573,105.218 251.256,105.241 251.733 C 105.267 252.281,105.403 252.086,105.610 251.203 C 105.960 249.716,105.865 249.133,105.449 250.215 M189.444 251.400 C 189.773 252.871,190.002 253.190,189.994 252.167 C 189.991 251.745,189.805 251.130,189.582 250.800 C 189.285 250.362,189.248 250.524,189.444 251.400 M205.693 254.400 C 205.693 255.170,205.775 255.485,205.876 255.100 C 205.976 254.715,205.976 254.085,205.876 253.700 C 205.775 253.315,205.693 253.630,205.693 254.400 M104.514 256.600 C 104.517 257.700,104.595 258.103,104.687 257.495 C 104.779 256.886,104.777 255.986,104.682 255.495 C 104.587 255.003,104.511 255.500,104.514 256.600 M190.134 257.600 C 190.134 259.250,190.205 259.925,190.291 259.100 C 190.378 258.275,190.378 256.925,190.291 256.100 C 190.205 255.275,190.134 255.950,190.134 257.600 M205.320 258.800 C 205.320 260.010,205.395 260.505,205.487 259.900 C 205.578 259.295,205.578 258.305,205.487 257.700 C 205.395 257.095,205.320 257.590,205.320 258.800 M82.928 262.800 C 82.928 264.230,83.001 264.815,83.089 264.100 C 83.178 263.385,83.178 262.215,83.089 261.500 C 83.001 260.785,82.928 261.370,82.928 262.800 M105.224 261.834 C 105.194 262.864,106.726 267.653,107.260 268.200 C 107.474 268.420,107.436 268.060,107.173 267.400 C 106.911 266.740,106.371 265.030,105.972 263.600 C 105.574 262.170,105.237 261.375,105.224 261.834 M189.654 263.467 C 189.625 263.944,189.496 264.664,189.370 265.067 C 189.152 265.761,189.164 265.762,189.596 265.088 C 189.847 264.697,189.975 263.977,189.881 263.488 C 189.709 262.601,189.709 262.601,189.654 263.467 M202.712 268.315 C 202.113 269.768,201.685 271.018,201.760 271.093 C 201.835 271.169,202.398 270.051,203.011 268.611 C 203.623 267.170,204.051 265.919,203.962 265.832 C 203.873 265.745,203.310 266.862,202.712 268.315 M186.600 272.400 C 186.259 273.060,186.069 273.600,186.179 273.600 C 186.289 273.600,186.659 273.060,187.000 272.400 C 187.341 271.740,187.531 271.200,187.421 271.200 C 187.311 271.200,186.941 271.740,186.600 272.400 M200.600 272.800 C 200.259 273.460,200.069 274.000,200.179 274.000 C 200.289 274.000,200.659 273.460,201.000 272.800 C 201.341 272.140,201.531 271.600,201.421 271.600 C 201.311 271.600,200.941 272.140,200.600 272.800 M111.526 275.000 C 112.352 276.223,115.532 279.354,117.025 280.414 C 117.478 280.736,117.028 280.247,116.025 279.327 C 115.021 278.407,113.416 276.787,112.458 275.727 C 111.499 274.667,111.080 274.340,111.526 275.000 M197.775 277.068 C 197.159 277.876,196.859 278.411,197.109 278.256 C 197.621 277.940,199.353 275.600,199.075 275.600 C 198.976 275.600,198.391 276.261,197.775 277.068 M193.387 282.100 L 191.000 284.600 193.500 282.213 C 195.822 279.995,196.183 279.600,195.887 279.600 C 195.826 279.600,194.701 280.725,193.387 282.100 M91.000 281.600 C 91.859 282.480,92.652 283.200,92.762 283.200 C 92.872 283.200,92.259 282.480,91.400 281.600 C 90.541 280.720,89.748 280.000,89.638 280.000 C 89.528 280.000,90.141 280.720,91.000 281.600 M120.800 282.979 C 120.800 283.089,121.340 283.459,122.000 283.800 C 122.660 284.141,123.200 284.331,123.200 284.221 C 123.200 284.111,122.660 283.741,122.000 283.400 C 121.340 283.059,120.800 282.869,120.800 282.979 M188.600 286.053 C 186.185 288.014,185.962 288.239,187.000 287.670 C 187.888 287.183,191.116 284.430,190.800 284.429 C 190.690 284.429,189.700 285.159,188.600 286.053 M96.984 286.489 C 97.653 287.088,98.359 287.583,98.554 287.589 C 98.749 287.595,98.389 287.208,97.754 286.728 C 95.981 285.389,95.638 285.283,96.984 286.489 M165.000 287.200 C 164.496 287.417,164.422 287.544,164.800 287.544 C 165.130 287.544,165.760 287.389,166.200 287.200 C 166.704 286.983,166.778 286.856,166.400 286.856 C 166.070 286.856,165.440 287.011,165.000 287.200 M99.800 288.207 C 100.240 288.566,100.960 289.035,101.400 289.251 L 102.200 289.644 101.400 288.993 C 100.960 288.634,100.240 288.165,99.800 287.949 L 99.000 287.556 99.800 288.207 M161.200 288.000 C 160.396 288.257,160.357 288.323,161.000 288.332 C 161.440 288.338,162.160 288.189,162.600 288.000 C 163.619 287.562,162.568 287.562,161.200 288.000 M136.600 288.781 C 137.368 289.129,139.510 289.356,139.167 289.053 C 139.075 288.972,138.280 288.796,137.400 288.662 C 136.285 288.493,136.042 288.529,136.600 288.781 M155.600 288.800 L 154.200 289.095 155.600 289.119 C 156.370 289.133,157.360 288.989,157.800 288.800 L 158.600 288.456 157.800 288.481 C 157.360 288.494,156.370 288.638,155.600 288.800 M183.500 289.429 C 182.005 290.240,182.096 290.578,183.600 289.800 C 184.260 289.459,184.800 289.094,184.800 288.990 C 184.800 288.732,184.757 288.747,183.500 289.429 M144.512 289.495 C 145.564 289.577,147.184 289.576,148.112 289.492 C 149.040 289.408,148.180 289.341,146.200 289.342 C 144.220 289.343,143.460 289.412,144.512 289.495 M104.054 290.587 C 104.390 290.923,107.200 292.016,107.200 291.811 C 107.200 291.701,106.548 291.338,105.751 291.005 C 104.275 290.389,103.718 290.251,104.054 290.587 M125.200 297.200 C 126.568 297.638,127.619 297.638,126.600 297.200 C 126.160 297.011,125.440 296.862,125.000 296.868 C 124.357 296.877,124.396 296.943,125.200 297.200 M162.400 297.200 C 161.605 297.714,162.604 297.714,163.800 297.200 L 164.600 296.856 163.800 296.834 C 163.360 296.822,162.730 296.987,162.400 297.200 M130.600 298.023 C 132.626 298.442,134.263 298.423,132.600 298.000 C 131.940 297.832,130.860 297.694,130.200 297.693 C 129.191 297.692,129.255 297.745,130.600 298.023 M157.000 298.000 C 155.337 298.423,156.974 298.442,159.000 298.023 C 160.345 297.745,160.409 297.692,159.400 297.693 C 158.740 297.694,157.660 297.832,157.000 298.000 M141.100 298.888 C 143.355 299.073,147.045 299.073,149.300 298.888 C 153.004 298.585,152.607 298.553,145.200 298.553 C 137.793 298.553,137.396 298.585,141.100 298.888 " stroke="none" fill="#d4a4a4" fill-rule="evenodd"></path><path id="path6" d="M163.100 100.700 C 171.735 100.760,185.865 100.760,194.500 100.700 C 203.135 100.640,196.070 100.590,178.800 100.590 C 161.530 100.590,154.465 100.640,163.100 100.700 M262.080 100.698 C 263.994 100.771,267.234 100.771,269.280 100.698 C 271.326 100.626,269.760 100.566,265.800 100.565 C 261.840 100.565,260.166 100.624,262.080 100.698 M138.100 110.276 C 138.485 110.376,139.115 110.376,139.500 110.276 C 139.885 110.175,139.570 110.093,138.800 110.093 C 138.030 110.093,137.715 110.175,138.100 110.276 M142.900 110.276 C 143.285 110.376,143.915 110.376,144.300 110.276 C 144.685 110.175,144.370 110.093,143.600 110.093 C 142.830 110.093,142.515 110.175,142.900 110.276 M126.175 116.100 L 125.000 117.400 126.300 116.225 C 127.512 115.130,127.784 114.800,127.475 114.800 C 127.406 114.800,126.821 115.385,126.175 116.100 M186.383 116.500 C 188.041 118.266,188.400 118.584,188.400 118.283 C 188.400 118.219,187.545 117.364,186.500 116.383 L 184.600 114.600 186.383 116.500 M118.093 134.800 C 118.093 135.570,118.175 135.885,118.276 135.500 C 118.376 135.115,118.376 134.485,118.276 134.100 C 118.175 133.715,118.093 134.030,118.093 134.800 M196.893 138.400 C 196.893 139.170,196.975 139.485,197.076 139.100 C 197.176 138.715,197.176 138.085,197.076 137.700 C 196.975 137.315,196.893 137.630,196.893 138.400 M118.093 144.400 C 118.093 145.170,118.175 145.485,118.276 145.100 C 118.376 144.715,118.376 144.085,118.276 143.700 C 118.175 143.315,118.093 143.630,118.093 144.400 M255.300 144.287 C 255.905 144.378,256.895 144.378,257.500 144.287 C 258.105 144.195,257.610 144.120,256.400 144.120 C 255.190 144.120,254.695 144.195,255.300 144.287 M197.701 146.200 C 197.705 147.080,197.787 147.393,197.883 146.895 C 197.979 146.398,197.975 145.678,197.875 145.295 C 197.775 144.913,197.696 145.320,197.701 146.200 M317.365 151.600 C 317.365 155.450,317.425 157.025,317.498 155.100 C 317.571 153.175,317.571 150.025,317.498 148.100 C 317.425 146.175,317.365 147.750,317.365 151.600 M196.854 152.667 C 196.825 153.144,196.696 153.864,196.570 154.267 C 196.352 154.961,196.364 154.962,196.796 154.288 C 197.047 153.897,197.175 153.177,197.081 152.688 C 196.909 151.801,196.909 151.801,196.854 152.667 M214.503 158.800 C 214.646 159.324,217.450 159.401,236.633 159.405 L 258.600 159.410 236.821 159.302 C 220.038 159.218,214.962 159.079,214.691 158.697 C 214.433 158.332,214.383 158.359,214.503 158.800 M284.528 159.500 C 290.649 159.562,300.549 159.562,306.528 159.500 C 312.508 159.437,307.500 159.387,295.400 159.387 C 283.300 159.387,278.408 159.438,284.528 159.500 M186.175 172.900 L 185.000 174.200 186.300 173.025 C 187.512 171.930,187.784 171.600,187.475 171.600 C 187.406 171.600,186.821 172.185,186.175 172.900 M132.000 174.600 C 133.417 176.030,134.667 177.200,134.777 177.200 C 134.887 177.200,133.817 176.030,132.400 174.600 C 130.983 173.170,129.733 172.000,129.623 172.000 C 129.513 172.000,130.583 173.170,132.000 174.600 M183.375 175.700 L 182.200 177.000 183.500 175.825 C 184.712 174.730,184.984 174.400,184.675 174.400 C 184.606 174.400,184.021 174.985,183.375 175.700 M166.800 177.800 C 165.828 178.790,165.123 179.600,165.233 179.600 C 165.343 179.600,166.228 178.790,167.200 177.800 C 168.172 176.810,168.877 176.000,168.767 176.000 C 168.657 176.000,167.772 176.810,166.800 177.800 M168.509 195.200 C 168.509 196.190,168.587 196.595,168.682 196.100 C 168.778 195.605,168.778 194.795,168.682 194.300 C 168.587 193.805,168.509 194.210,168.509 195.200 M273.200 203.150 C 273.200 203.515,271.393 203.605,265.838 203.517 C 261.788 203.453,258.559 203.535,258.661 203.700 C 258.963 204.186,273.113 204.065,273.416 203.573 C 273.561 203.339,273.572 203.039,273.440 202.907 C 273.308 202.775,273.200 202.884,273.200 203.150 M138.100 218.687 C 138.705 218.778,139.695 218.778,140.300 218.687 C 140.905 218.595,140.410 218.520,139.200 218.520 C 137.990 218.520,137.495 218.595,138.100 218.687 M190.400 219.325 C 190.400 219.394,190.985 219.979,191.700 220.625 L 193.000 221.800 191.825 220.500 C 190.730 219.288,190.400 219.016,190.400 219.325 M194.800 223.725 C 194.800 223.794,195.385 224.379,196.100 225.025 L 197.400 226.200 196.225 224.900 C 195.130 223.688,194.800 223.416,194.800 223.725 M144.691 225.089 C 145.401 225.177,146.661 225.179,147.491 225.092 C 148.321 225.005,147.740 224.933,146.200 224.931 C 144.660 224.929,143.981 225.000,144.691 225.089 M151.107 225.090 C 151.826 225.179,152.906 225.177,153.507 225.086 C 154.108 224.995,153.520 224.922,152.200 224.924 C 150.880 224.926,150.388 225.001,151.107 225.090 M157.600 225.582 C 157.930 225.805,158.545 225.991,158.967 225.994 C 159.990 226.002,159.671 225.773,158.200 225.444 C 157.324 225.248,157.162 225.285,157.600 225.582 M170.800 231.346 C 170.800 231.456,171.340 231.930,172.000 232.400 C 172.660 232.870,173.200 233.164,173.200 233.054 C 173.200 232.944,172.660 232.470,172.000 232.000 C 171.340 231.530,170.800 231.236,170.800 231.346 M173.600 233.311 C 173.600 233.387,174.185 233.878,174.900 234.401 C 175.704 234.990,175.984 235.087,175.633 234.655 C 175.100 233.999,173.600 233.007,173.600 233.311 M206.144 254.000 C 206.144 256.090,206.212 256.945,206.294 255.900 C 206.376 254.855,206.376 253.145,206.294 252.100 C 206.212 251.055,206.144 251.910,206.144 254.000 M105.340 256.800 C 105.340 258.670,105.409 259.435,105.493 258.500 C 105.577 257.565,105.577 256.035,105.493 255.100 C 105.409 254.165,105.340 254.930,105.340 256.800 M189.740 257.600 C 189.740 259.470,189.809 260.235,189.893 259.300 C 189.977 258.365,189.977 256.835,189.893 255.900 C 189.809 254.965,189.740 255.730,189.740 257.600 M82.531 263.000 C 82.533 264.540,82.605 265.121,82.692 264.291 C 82.779 263.461,82.777 262.201,82.689 261.491 C 82.600 260.781,82.529 261.460,82.531 263.000 M180.575 279.300 L 179.400 280.600 180.700 279.425 C 181.912 278.330,182.184 278.000,181.875 278.000 C 181.806 278.000,181.221 278.585,180.575 279.300 M191.375 284.500 L 190.200 285.800 191.500 284.625 C 192.712 283.530,192.984 283.200,192.675 283.200 C 192.606 283.200,192.021 283.785,191.375 284.500 M157.300 288.276 C 157.685 288.376,158.315 288.376,158.700 288.276 C 159.085 288.175,158.770 288.093,158.000 288.093 C 157.230 288.093,156.915 288.175,157.300 288.276 M143.700 289.097 C 145.185 289.174,147.615 289.174,149.100 289.097 C 150.585 289.020,149.370 288.957,146.400 288.957 C 143.430 288.957,142.215 289.020,143.700 289.097 M126.100 297.876 C 126.485 297.976,127.115 297.976,127.500 297.876 C 127.885 297.775,127.570 297.693,126.800 297.693 C 126.030 297.693,125.715 297.775,126.100 297.876 M132.505 298.687 C 133.114 298.779,134.014 298.777,134.505 298.682 C 134.997 298.587,134.500 298.511,133.400 298.514 C 132.300 298.517,131.897 298.595,132.505 298.687 M155.905 298.683 C 156.402 298.779,157.122 298.775,157.505 298.675 C 157.887 298.575,157.480 298.496,156.600 298.501 C 155.720 298.505,155.407 298.587,155.905 298.683 M136.900 299.076 C 137.285 299.176,137.915 299.176,138.300 299.076 C 138.685 298.975,138.370 298.893,137.600 298.893 C 136.830 298.893,136.515 298.975,136.900 299.076 M144.505 299.487 C 145.114 299.579,146.014 299.577,146.505 299.482 C 146.997 299.387,146.500 299.311,145.400 299.314 C 144.300 299.317,143.897 299.395,144.505 299.487 " stroke="none" fill="#cf6c5f" fill-rule="evenodd"></path><path id="path7" d="M110.575 115.700 L 109.400 117.000 110.700 115.825 C 111.912 114.730,112.184 114.400,111.875 114.400 C 111.806 114.400,111.221 114.985,110.575 115.700 M106.975 119.300 L 105.800 120.600 107.100 119.425 C 108.312 118.330,108.584 118.000,108.275 118.000 C 108.206 118.000,107.621 118.585,106.975 119.300 M214.565 151.600 C 214.565 155.450,214.625 157.025,214.698 155.100 C 214.771 153.175,214.771 150.025,214.698 148.100 C 214.625 146.175,214.565 147.750,214.565 151.600 M144.118 218.698 C 145.833 218.773,148.533 218.772,150.118 218.697 C 151.703 218.621,150.300 218.559,147.000 218.560 C 143.700 218.561,142.403 218.622,144.118 218.698 " stroke="none" fill="#e47c6c" fill-rule="evenodd"></path><path id="path8" d="M142.883 100.740 C 142.594 100.924,143.389 100.996,144.683 100.904 C 147.842 100.679,148.258 100.468,145.600 100.438 C 144.390 100.424,143.167 100.560,142.883 100.740 M110.115 115.610 C 109.189 116.485,108.567 117.200,108.734 117.200 C 108.901 117.200,109.741 116.480,110.600 115.600 C 112.610 113.541,112.300 113.548,110.115 115.610 M106.581 119.300 L 105.000 121.000 106.700 119.419 C 108.281 117.948,108.584 117.600,108.281 117.600 C 108.216 117.600,107.451 118.365,106.581 119.300 M100.065 128.217 C 99.395 129.688,99.523 130.002,100.247 128.665 C 100.586 128.040,100.788 127.454,100.696 127.363 C 100.605 127.271,100.321 127.656,100.065 128.217 M254.257 143.907 C 254.153 144.076,254.817 144.157,255.734 144.086 C 258.425 143.879,258.753 143.696,256.524 143.646 C 255.382 143.621,254.362 143.738,254.257 143.907 M95.714 146.200 C 95.717 147.300,95.795 147.703,95.887 147.095 C 95.979 146.486,95.977 145.586,95.882 145.095 C 95.787 144.603,95.711 145.100,95.714 146.200 M108.200 177.600 C 109.059 178.480,109.837 179.200,109.928 179.200 C 110.265 179.200,107.386 176.066,107.019 176.034 C 106.809 176.015,107.341 176.720,108.200 177.600 M144.901 201.800 C 144.905 202.680,144.987 202.993,145.083 202.495 C 145.179 201.998,145.175 201.278,145.075 200.895 C 144.975 200.513,144.896 200.920,144.901 201.800 M148.800 214.000 C 149.270 214.660,149.744 215.200,149.854 215.200 C 149.964 215.200,149.670 214.660,149.200 214.000 C 148.730 213.340,148.256 212.800,148.146 212.800 C 148.036 212.800,148.330 213.340,148.800 214.000 M134.700 218.682 C 135.195 218.778,136.005 218.778,136.500 218.682 C 136.995 218.587,136.590 218.509,135.600 218.509 C 134.610 218.509,134.205 218.587,134.700 218.682 M98.653 232.814 C 97.582 233.686,96.862 234.395,97.053 234.388 C 97.414 234.376,101.152 231.222,100.800 231.226 C 100.690 231.227,99.724 231.942,98.653 232.814 M82.501 259.000 C 82.505 259.880,82.587 260.193,82.683 259.695 C 82.779 259.198,82.775 258.478,82.675 258.095 C 82.575 257.713,82.496 258.120,82.501 259.000 M82.493 266.800 C 82.493 267.570,82.575 267.885,82.676 267.500 C 82.776 267.115,82.776 266.485,82.676 266.100 C 82.575 265.715,82.493 266.030,82.493 266.800 M91.233 282.900 C 91.325 282.955,91.940 283.450,92.600 284.000 L 93.800 285.000 92.830 283.900 C 92.297 283.295,91.682 282.800,91.464 282.800 C 91.245 282.800,91.142 282.845,91.233 282.900 " stroke="none" fill="#e45c4c" fill-rule="evenodd"></path></g></svg>